<?xml version="1.0" encoding="UTF-8"?>
<!DOCTYPE svg PUBLIC "-//W3C//DTD SVG 1.1//EN" "http://www.w3.org/Graphics/SVG/1.1/DTD/svg11.dtd">
<!-- Creator: CorelDRAW 2020 (64-Bit) -->
<svg xmlns="http://www.w3.org/2000/svg" xml:space="preserve" width="29.5344mm" height="27.7711mm" version="1.1" style="shape-rendering:geometricPrecision; text-rendering:geometricPrecision; image-rendering:optimizeQuality; fill-rule:evenodd; clip-rule:evenodd"
viewBox="0 0 34.45 32.39"
 xmlns:xlink="http://www.w3.org/1999/xlink"
 xmlns:xodm="http://www.corel.com/coreldraw/odm/2003">
 <defs>
  <style type="text/css">
   <![CDATA[
    .fil1 {fill:#FEFEFE;fill-rule:nonzero}
    .fil0 {fill:#00B0B1;fill-rule:nonzero}
   ]]>
  </style>
 </defs>
 <g id="Слой_x0020_1">
  <metadata id="CorelCorpID_0Corel-Layer"/>
  <path class="fil0" d="M17.26 8.38c0,0 -0.06,-0.36 -0.3,-0.23 -0.24,0.13 -0.15,0.67 -0.07,0.86 0.07,0.18 0.15,0.36 0.15,0.36 0,0 0.07,-0.22 0.14,-0.37 0.07,-0.15 0.09,-0.21 0.09,-0.21 0,0 -0.01,0.46 0.17,0.8 0.17,0.34 0.32,0.62 0.32,0.62 0,0 0.11,-0.42 0,-1.12 -0.11,-0.71 -0.31,-1.14 -0.31,-1.14 0,0 -0.13,0.11 -0.17,0.44zm-16.93 -7.3l13.98 0 2.61 -1.03c0.12,-0.05 0.28,-0.06 0.43,-0.05 0.14,0.01 0.29,0.04 0.42,0.09l2.51 0.99 14.16 0 0 14.08c0,4.74 -1.94,9.04 -5.06,12.17 -3.12,3.12 -7.43,5.06 -12.17,5.06 -4.74,0 -9.04,-1.94 -12.17,-5.06 -3.12,-3.12 -5.06,-7.43 -5.06,-12.17l0 -14.08 0.34 0zm12.28 0.67l-11.94 0 0 13.41c0,4.55 1.86,8.69 4.86,11.69 3,3 7.14,4.86 11.69,4.86 4.55,0 8.69,-1.86 11.69,-4.86 3,-3 4.86,-7.14 4.86,-11.69l0 -13.41 -11.78 0 1.24 0.49c0.13,0.05 0.23,0.12 0.3,0.19 0.07,0.08 0.12,0.17 0.13,0.27 0.02,0.14 -0.01,0.26 -0.1,0.37 -0.06,0.07 -0.13,0.12 -0.22,0.16l-1.99 0.79c0.88,1.05 1.28,2.3 1.28,3.7 0,1.56 -0.47,2.95 -1.55,4.08 -1.02,1.07 -2.28,1.63 -3.76,1.63 -1.47,0 -2.73,-0.52 -3.75,-1.59 -1.08,-1.13 -1.52,-2.55 -1.52,-4.1 0,-1.41 0.4,-2.66 1.27,-3.7l-1.94 -0.77c-0.13,-0.05 -0.23,-0.12 -0.3,-0.19 -0.07,-0.08 -0.12,-0.17 -0.13,-0.27l0 -0c-0.02,-0.13 0.01,-0.26 0.1,-0.37 0.06,-0.07 0.13,-0.12 0.22,-0.16l1.34 -0.53zm-6.48 3.41l0 4.04 2.26 0c0.32,0 0.9,-0.02 1.16,-0.25 0.32,-0.29 0.41,-0.81 0.43,-1.21l0 -0.08 0.45 0 0 3.88 -0.44 0 -0.01 -0.07c-0.03,-0.25 -0.1,-0.75 -0.21,-0.97 -0.09,-0.18 -0.25,-0.31 -0.43,-0.39 -0.26,-0.13 -0.66,-0.15 -0.95,-0.15l-2.26 0 0 3.43c0,0.17 -0,0.68 0.06,0.83 0.04,0.09 0.1,0.16 0.19,0.2 0.12,0.07 0.41,0.08 0.55,0.08l1.8 0c0.39,0 0.91,-0.01 1.28,-0.12 0.29,-0.09 0.54,-0.27 0.75,-0.47 0.4,-0.39 0.72,-0.95 0.98,-1.45l0.02 -0.04 0.49 0 -0.98 2.83 -8.35 0 0 -0.46 0.46 0c0.24,0 0.46,-0.06 0.68,-0.17 0.14,-0.07 0.25,-0.18 0.3,-0.33 0.09,-0.24 0.09,-0.74 0.09,-1l0 -6.92c0,-0.25 -0.01,-0.99 -0.18,-1.19 -0.21,-0.24 -0.58,-0.29 -0.88,-0.29l-0.46 0 0 -0.46 8.37 0 0.12 2.51 -0.46 0 -0.01 -0.07c-0.06,-0.33 -0.17,-0.85 -0.35,-1.14 -0.13,-0.21 -0.33,-0.35 -0.55,-0.45 -0.28,-0.11 -0.77,-0.11 -1.08,-0.11l-2.83 0zm21.25 5.78l-1.67 -4 -1.71 4 3.38 0zm0.31 0.74l-4.01 0 -0.69 1.62c-0.1,0.24 -0.26,0.63 -0.26,0.89 0,0.15 0.08,0.27 0.2,0.36 0.19,0.15 0.71,0.2 0.95,0.22l0.08 0.01 0 0.45 -3.52 0 0 -0.44 0.07 -0.01c0.22,-0.04 0.65,-0.13 0.82,-0.28 0.35,-0.33 0.68,-1.06 0.87,-1.5l3.77 -8.82 0.38 0 3.72 8.91c0.16,0.39 0.46,1.07 0.79,1.36 0.27,0.23 0.62,0.31 0.97,0.34l0.08 0 0 0.45 -4.36 0 0 -0.45 0.08 -0c0.22,-0.01 0.63,-0.05 0.81,-0.19 0.12,-0.1 0.19,-0.22 0.19,-0.38 0,-0.3 -0.19,-0.78 -0.31,-1.06l-0.61 -1.46zm-10.41 -8.83c-0.89,0 -1.62,0.32 -2.19,0.99l2.03 0.8c0.05,0.02 0.11,0.03 0.17,0.04l0 0c0.04,0 0.07,0 0.07,0l2.18 -0.86c-0.58,-0.69 -1.36,-0.98 -2.26,-0.98zm0.15 -0.73c1.27,0 2.35,0.44 3.28,1.25l1.56 -0.62 -4.8 -1.89c-0.05,-0.02 -0.11,-0.03 -0.18,-0.04 -0.04,-0 -0.07,-0 -0.07,-0l-4.9 1.93 1.62 0.64c0.99,-0.86 2.16,-1.27 3.48,-1.27zm2.58 2.41l-2.34 0.92c-0.07,0.03 -0.15,0.04 -0.23,0.05l0 1.67c0.11,0.06 0.19,0.18 0.19,0.32 0,0.2 -0.17,0.37 -0.37,0.37 -0.2,0 -0.37,-0.17 -0.37,-0.37 0,-0.14 0.08,-0.26 0.19,-0.32l0 -1.69c-0.09,-0.02 -0.17,-0.04 -0.25,-0.07l-2.19 -0.87c-0.49,0.95 -0.62,2.1 -0.62,3.14 0,1.36 0.22,2.87 1.09,3.96 0.56,0.7 1.29,1.04 2.19,1.04 0.98,0 1.78,-0.39 2.41,-1.14 0.8,-0.95 0.96,-2.44 0.96,-3.64 0,-1.09 -0.13,-2.36 -0.64,-3.38z"/>
  <path class="fil1" d="M7.96 24.63l-0.01 0 0.01 -0zm0.09 -0.05l-0.01 0 0.01 -0zm0.07 -0.04l-0.01 0 0.01 -0zm0.11 -0.06l-0.01 0 0.01 -0zm6.45 -7c-0.01,0 -0,-0 -0,0 0.01,0 0,0 0,-0zm-0.01 0.01c-0.01,0 -0,-0 -0,0 0.01,0 0,0 0,-0zm-0.04 0.04c-0.01,0 -0,-0 -0,0 0.01,0 0,0 0,-0zm0.02 -0.02c-0.01,0 -0,-0 -0,0 0.01,0 0,0 0,-0zm-0.03 0.03c-0.01,0 -0,-0 -0,0 0.01,0 0,0 0,-0zm0.02 -0.02c-0.01,0 -0,-0 -0,0 0.01,0 0,0 0,-0zm0.01 -0.01c-0.01,0 -0,-0 -0,0 0.01,0 0,0 0,-0zm-0.02 0.02c-0.01,0 -0,-0 -0,0 0.01,0 0,0 0,-0zm-0.02 0.02c-0.01,0 -0,-0 -0,0 0.01,0 0,0 0,-0zm0.07 -0.07c-0.01,0 -0,-0 -0,0 0.01,0 0,0 0,-0zm-0.07 0.07c-0.01,0 -0,-0 -0,0 0.01,0 0,0 0,-0zm2.9 1.06l-0.01 0 0 0.01 0.01 -0.01zm6.61 0.31l0.01 -0 0 -0.01 -0.02 -0c0.01,0.01 0,0 0.01,0.01zm-0.07 2.3l0.01 -0 0 -0.01c-0.01,-0 -0,-0.01 -0.01,-0l-0 0.01zm-9.45 -3.67l0.01 0c0,-0.01 -0,-0 0,-0l0 -0c0,-0.01 -0,-0 0,-0l0 -0c0,-0.01 -0,-0 0,-0l0 -0c0,-0.01 -0,-0 0,-0l0 -0c0,-0.01 -0,-0 0,-0l0 -0c0,-0.01 -0,-0 0,-0l0 -0c0,-0.01 -0,-0 0,-0l0 -0c0,-0.01 -0,-0 0,-0l0 -0c0,-0.01 -0,-0 0,-0l0 -0c0,-0.01 -0,-0 0,-0l0 -0c0,-0.01 -0,-0 0,-0l0 -0.01 -0.08 0.09zm0 0l0.08 -0.09c0.05,-0.03 0.09,-0.18 0.1,-0.24 0.01,-0.08 -0.02,-0.2 -0.08,-0.26 -0.09,-0.08 -0.14,-0.09 -0.26,-0.08 -0.04,0 -0.09,0.02 -0.13,0.04 -0.05,0.02 -0.06,0.04 -0.1,0.07 -0.07,0.07 -0.12,0.15 -0.13,0.25 -0,0.02 0,0.03 -0,0.04 -0.01,0.05 0,0.03 0,0.07 0,0.13 0.13,0.26 0.24,0.27 0.08,0 0.21,-0.01 0.26,-0.08zm-1.72 2.04c0.01,-0 0.04,-0.04 0.05,-0.05 0.01,-0.01 0.01,-0.01 0.02,-0.01l0.13 -0.13c0.05,-0.04 0.06,-0.06 0.1,-0.09 0.01,-0.01 0.03,-0.02 0.04,-0.04 0.02,-0.02 0.02,-0.02 0.04,-0.03l0.08 -0.06c0.04,-0.02 0.11,-0.06 0.15,-0.06 0.02,0 0.05,0 0.07,-0 0.03,0.05 0.05,0.03 0.02,0.15 -0.01,0.06 -0.02,0.1 -0.04,0.15 -0.03,0.1 -0.06,0.2 -0.09,0.29 -0.12,0.41 -0.23,0.78 -0.34,1.2 -0.05,0.2 -0.11,0.42 -0.14,0.63 -0.03,0.2 -0.09,0.47 0.1,0.6 0.17,0.12 0.43,0.01 0.58,-0.09 0.22,-0.13 0.35,-0.26 0.54,-0.42 0.03,-0.02 0.08,-0.07 0.1,-0.09l0.2 -0.18c0,-0.01 -0.02,-0.03 -0.03,-0.03 -0.01,-0.01 -0.02,-0.02 -0.03,-0.03 -0.02,-0.02 -0.04,-0.04 -0.06,-0.06 -0.04,-0.04 -0.03,-0.04 -0.07,-0 -0.02,0.02 -0.05,0.04 -0.07,0.06 -0.05,0.06 -0.2,0.19 -0.27,0.24 -0.06,0.05 -0.24,0.2 -0.32,0.18 -0.12,-0.03 -0.05,-0.31 -0.03,-0.4 0.09,-0.45 0.29,-1.15 0.43,-1.6 0.08,-0.26 0.16,-0.54 0.22,-0.8 0.02,-0.07 0.02,-0.13 -0.02,-0.2 -0.12,-0.17 -0.44,-0.08 -0.59,-0.02 -0.3,0.12 -0.65,0.4 -0.87,0.65 -0.02,0.02 -0.09,0.08 -0.09,0.1 -0,0.02 0.01,0.02 0.04,0.05l0.11 0.08c0.01,0.01 0.01,0.01 0.02,0.01zm11.17 1.63l0 -0.01c0.01,-0 0,-0 0.01,0 -0.01,-0.01 -0.01,-0.01 -0.02,-0.02 -0.01,-0.01 -0,-0.01 -0.02,-0.03 -0.01,-0.01 -0.02,-0.01 -0.02,-0.02 -0.01,-0.01 -0,-0.01 -0.02,-0.03 -0.02,-0.02 -0.01,-0.01 -0.04,-0.05 -0.01,-0.01 -0.03,-0.04 -0.04,-0.05l-0.17 0.13c-0.17,0.13 -0.36,0.25 -0.54,0.35 -0.23,0.13 -0.54,0.23 -0.5,-0.15 0.02,-0.17 0.05,-0.34 0.09,-0.5 0.02,-0.08 0.04,-0.16 0.06,-0.24 0.08,-0.31 0.17,-0.63 0.25,-0.94 0.02,-0.08 0.04,-0.16 0.06,-0.24 0.02,-0.08 0.04,-0.16 0.06,-0.24l0.85 0 0.01 -0.05c0,-0.01 0,-0.01 0,-0.02 0,-0.02 0,-0.01 0.01,-0.03 0,-0.02 0,-0.01 0,-0.02l0.02 -0.09c0,-0.01 0,0 0,-0.01 0,-0.01 0,-0.01 0,-0.02 0,-0.02 0.01,-0.01 0.01,-0.04 -0,-0.01 0,-0 -0.01,-0.01l0.02 0c-0.01,-0.01 -0.08,-0.01 -0.1,-0.01l-0.74 0c0.01,-0.01 0.03,-0.12 0.04,-0.14l0.04 -0.14c0.01,-0.05 0.03,-0.09 0.04,-0.14 0,-0.01 0.01,-0.03 0.01,-0.04l0.16 -0.61c0,-0.01 0.02,-0.06 0.02,-0.07 -0.04,0.01 -0.49,0.18 -0.55,0.21 -0.12,0.05 -0.1,0.01 -0.13,0.13l-0.21 0.81 -0.67 0c0,0.03 -0.02,0.09 -0.03,0.13l-0.02 0.07c-0,0.01 -0,-0 -0.01,0.02 -0,0.02 -0,0.02 -0.01,0.04 -0,0.02 -0.01,0.01 -0.01,0.04l0.66 0c-0.11,0.43 -0.22,0.87 -0.33,1.3 -0.06,0.21 -0.12,0.44 -0.16,0.66 -0.05,0.24 -0.1,0.48 -0.06,0.73 0.08,0.57 0.76,0.21 1.04,0.02 0.08,-0.05 0.16,-0.11 0.24,-0.16 0.08,-0.06 0.16,-0.11 0.24,-0.17 0.08,-0.06 0.16,-0.12 0.24,-0.17 0.07,-0.05 0.17,-0.12 0.23,-0.18zm-10.6 -4.9c-0.69,0.06 -1.31,0.51 -1.58,1.15 -0.07,0.16 -0.12,0.34 -0.17,0.51 -0.05,0.18 -0.1,0.36 -0.15,0.54 -0.09,0.36 -0.18,0.73 -0.27,1.1 -0.13,0.56 -0.28,1.1 -0.39,1.66 -0.03,0.17 -0.08,0.43 -0.07,0.6 0.02,0.22 0.14,0.33 0.36,0.31 0.4,-0.04 0.99,-0.53 1.26,-0.8 0.03,-0.03 0.06,-0.06 0.08,-0.08 0.07,-0.07 0.06,-0.06 0.03,-0.09 -0.05,-0.05 -0.04,-0.04 -0.08,-0.09 -0.04,-0.04 -0.03,-0.04 -0.09,0.02 -0.11,0.11 -0.24,0.22 -0.37,0.31 -0.1,0.07 -0.32,0.23 -0.43,0.27 -0.1,0.03 -0.18,-0.01 -0.17,-0.12 0,-0.08 0.04,-0.21 0.06,-0.29 0.16,-0.74 0.35,-1.48 0.52,-2.22 0.09,-0.37 0.17,-0.74 0.26,-1.1 0.04,-0.18 0.09,-0.36 0.14,-0.54 0.04,-0.16 0.1,-0.36 0.2,-0.49 0.06,-0.08 0.12,-0.11 0.22,-0.12 0.34,-0.04 0.67,0.11 0.94,0.05 0.18,-0.04 0.31,-0.22 0.21,-0.4 -0.09,-0.19 -0.34,-0.18 -0.52,-0.16zm5.83 3.36c0.02,-0.13 0.05,-0.25 0.08,-0.38l0.25 -1.12c0.05,-0.24 0.11,-0.5 0.17,-0.74 0.05,-0.19 0.13,-0.5 0.33,-0.59 0.17,-0.08 0.61,0.03 0.82,0.04 0.14,0.01 0.26,0 0.37,-0.09 0.1,-0.08 0.12,-0.22 0.06,-0.33 -0.13,-0.23 -0.5,-0.17 -0.71,-0.12 -0.22,0.05 -0.45,0.16 -0.64,0.28 -0.64,0.42 -0.84,1.03 -1,1.74 -0.06,0.25 -0.11,0.5 -0.17,0.75 -0.17,0.74 -0.33,1.5 -0.52,2.23 -0.03,0.12 -0.06,0.24 -0.09,0.36 -0.03,0.12 -0.07,0.24 -0.09,0.37l0.61 0c0.03,-0.19 0.08,-0.37 0.12,-0.56 0.04,-0.19 0.08,-0.37 0.13,-0.56 0.08,-0.34 0.14,-0.72 0.36,-1.01 0.18,-0.24 0.45,-0.5 0.72,-0.65 0.07,-0.04 0.16,-0.09 0.23,-0.1 0.09,-0.02 0.22,-0.04 0.24,0.08 0.02,0.09 -0.08,0.45 -0.12,0.56 -0.1,0.35 -0.21,0.7 -0.31,1.06 -0.08,0.29 -0.24,0.86 -0.1,1.14 0.19,0.37 0.69,0.03 0.9,-0.13 0.17,-0.13 0.3,-0.25 0.45,-0.4 0.03,-0.03 0.06,-0.06 0.09,-0.09 0.03,-0.04 0.03,-0.06 0,-0.1 -0.01,-0.02 -0.07,-0.09 -0.08,-0.1 -0.02,0 -0.05,0.04 -0.07,0.05l-0.21 0.17c-0.09,0.08 -0.18,0.16 -0.28,0.23 -0.13,0.09 -0.27,0.16 -0.26,-0.07 0.01,-0.15 0.03,-0.3 0.07,-0.44 0.14,-0.52 0.31,-1.04 0.46,-1.56 0.06,-0.21 0.2,-0.65 0.05,-0.83 -0.04,-0.05 -0.08,-0.08 -0.15,-0.11 -0.06,-0.02 -0.17,-0.02 -0.23,-0.01 -0.28,0.05 -0.74,0.39 -0.96,0.56 -0.09,0.07 -0.18,0.15 -0.27,0.23 -0.09,0.08 -0.17,0.17 -0.26,0.25zm0 0c-0,0.01 0,0 -0.01,0.01 0,-0.01 -0,-0 0.01,-0.01zm-1.77 -1.08l-0.01 0.01 -0 -0.01c-0.01,0.01 -0.03,0.08 -0.04,0.1 -0,0.01 -0,0 -0.01,0.02 -0.28,0 -0.54,-0.01 -0.81,0.05 -0.24,0.06 -0.39,0.14 -0.6,0.27 -0.09,0.06 -0.17,0.12 -0.24,0.19 -0.04,0.03 -0.07,0.07 -0.11,0.1 -0.04,0.04 -0.07,0.07 -0.11,0.11 -0.13,0.12 -0.28,0.35 -0.38,0.49 -0.23,0.34 -0.44,0.83 -0.5,1.24 -0.03,0.23 -0.07,0.54 0.08,0.73 0.07,0.09 0.16,0.15 0.28,0.16 0.16,0 0.24,-0.06 0.35,-0.09 -0.16,0.11 -0.36,0.21 -0.53,0.3 -0.18,0.09 -0.36,0.2 -0.52,0.32 -0.35,0.25 -0.58,0.73 -0.34,1.13 0.1,0.16 0.27,0.31 0.45,0.39 0.25,0.11 0.45,0.12 0.72,0.12 0.44,-0 0.9,-0.15 1.23,-0.45 0.35,-0.31 0.5,-0.66 0.55,-1.12 0.04,-0.33 0.03,-0.49 0.04,-0.79 0.03,-0.57 0.3,-1.51 0.44,-2.06 0.12,-0.44 0.25,-0.86 0.38,-1.3 -0.03,0 -0.04,0 -0.06,0.01l-0.04 0.01c-0.01,0 -0.01,0 -0.02,0 -0.02,0 -0,0 -0.02,0.01 -0.01,0 -0.01,0 -0.02,0l-0.16 0.03c-0.01,0 -0,-0 -0.01,0.01zm-0.47 0.6l-0.11 0.42c-0.04,0.14 -0.08,0.28 -0.11,0.42 -0.07,0.27 -0.14,0.55 -0.25,0.81 -0.1,0.25 -0.23,0.45 -0.45,0.61 -0.11,0.08 -0.21,0.14 -0.34,0.19 -0.06,0.02 -0.17,0.03 -0.23,0.01 -0.06,-0.02 -0.11,-0.07 -0.15,-0.12 -0.11,-0.13 -0.11,-0.27 -0.1,-0.43 0.01,-0.24 0.11,-0.63 0.2,-0.86 0.14,-0.37 0.28,-0.73 0.65,-0.94 0.21,-0.12 0.43,-0.14 0.66,-0.13 0.08,0 0.16,0.02 0.24,0.03zm-0.56 2.26c0,-0.01 -0,-0 0.01,-0.01 -0,0.01 0,0 -0.01,0.01zm0 0c-0,0.18 -0.03,0.36 -0.04,0.54 -0,0.05 0,0.1 0,0.14 -0,0.04 -0.01,0.09 -0.01,0.13 -0,0.09 -0.01,0.18 -0.02,0.27 -0.04,0.33 -0.09,0.59 -0.29,0.86 -0.21,0.3 -0.5,0.51 -0.87,0.56 -0.07,0.01 -0.21,0.01 -0.28,0 -0.43,-0.06 -0.78,-0.52 -0.45,-1.01 0.13,-0.19 0.43,-0.4 0.62,-0.53 0.22,-0.16 0.45,-0.31 0.67,-0.47 0.11,-0.08 0.22,-0.16 0.33,-0.24 0.05,-0.04 0.11,-0.08 0.16,-0.12 0.05,-0.04 0.1,-0.09 0.16,-0.13zm-1.02 0.5c0,-0.01 0.01,-0 0,0 -0,0 -0,0 -0,0 -0,0 -0,0.01 -0,-0zm-0.01 0.01c0,-0.01 -0,-0 0.01,-0.01 -0,0.01 0,0 -0.01,0.01zm0 0c-0,0.01 0,0 -0.01,0.01l-0.01 0c0,-0.01 -0,-0 0.01,-0.01l0.01 0zm-0.01 0.01c-0,0.01 0,0 -0.01,0.01l-0.01 0c0,-0.01 -0,-0 0.01,-0.01l0.01 0zm12.55 -6.05c-0.02,0.08 -0.06,0.26 -0.09,0.36 -0.05,0.21 -0.12,0.43 -0.18,0.63 -0.07,0.22 -0.14,0.44 -0.2,0.66 -0.14,0.43 -0.28,0.87 -0.43,1.3 -0.29,0.84 -0.6,1.68 -0.95,2.5 -0.17,0.4 -0.34,0.8 -0.54,1.19 -0.1,0.19 -0.19,0.38 -0.29,0.57 -0.28,0.51 -0.66,1.14 -1.11,1.51 -0.32,0.26 -0.67,0.51 -1.01,0.72l-0.01 0.01 -0.08 0.04c-0,0 -0.01,0.01 -0.01,0.01l-0.02 0.01 -0 -0c-0.01,0 -0.02,0.01 -0.03,0.02 -0.01,0.01 -0.01,0.01 -0.02,0.01 -0.01,0 -0.01,0.01 -0.02,0.01l-0.02 0.01 -0 -0c-0.05,0.02 -0.11,0.05 -0.16,0.08l-0.13 0.06 -0.08 0.03c0.12,-0 0.26,-0.01 0.36,-0.01l0.11 0 -0.05 0.09c-0.02,0.04 -0.05,0.05 -0.08,0.07l-0.21 0.16c-0.02,0.01 -0.04,0.03 -0.07,0.05l-0.35 0.25c-0.05,0.03 -0.1,0.06 -0.14,0.09 -0.05,0.03 -0.1,0.06 -0.15,0.09l-0.15 0.09 -0.02 0.01 -0 -0c-0,0 -0.01,0 -0.01,0.01 -0,0 -0,0 -0,0 -0,0 -0,0 -0,0l-0 0 -0.02 0.01 -0 -0c-0,0 -0.01,0 -0.01,0.01 -0,0 -0,0 -0,0 -0,0 -0,0 -0,0l-0 0 -0.02 0.01 -0 -0c-0.01,0 -0.01,0.01 -0.02,0.01 -0,0 -0.01,0 -0.01,0.01 -0.01,0 -0.01,0.01 -0.02,0.01l-0.02 0.01 -0 -0c-0.01,0 -0.02,0.01 -0.03,0.02 -0.01,0.01 -0.01,0.01 -0.02,0.01 -0.01,0 -0.01,0.01 -0.02,0.01l-0.01 0.01 -0 0c-0.48,0.25 -0.97,0.46 -1.49,0.61 -1.24,0.36 -2.47,0.39 -3.73,0.15 -0.56,-0.11 -1.1,-0.27 -1.63,-0.46 -0.51,-0.18 -1.01,-0.38 -1.51,-0.58 -0.49,-0.2 -0.98,-0.41 -1.48,-0.6 -0.54,-0.21 -1.06,-0.38 -1.64,-0.42 -0.32,-0.02 -0.63,-0.01 -0.95,0.04 -0.27,0.05 -0.51,0.14 -0.75,0.26l-0.01 0.01 -0 -0c-0.01,0 -0.01,0.01 -0.02,0.01 -0,0 -0.01,0 -0.01,0.01l-0 0 -0.01 0.01 -0 0c-0.07,0.03 -0.14,0.09 -0.21,0.13 -0.07,0.04 -0.13,0.1 -0.19,0.15 -0.02,0.01 -0.03,0.03 -0.04,0.04l-0.13 0.12c-0.03,0.03 -0.06,0.06 -0.09,0.09 -0.03,0.03 -0.05,0.07 -0.08,0.1 -0.05,0.04 -0.1,0.14 -0.15,0.19 -0.05,0.06 -0.09,0.14 -0.14,0.21 -0.14,0.21 -0.27,0.55 -0.37,0.78 0,0 -0,-0.21 0,-0.36l-0 -0 0 -0.01c0,-0.14 0.02,-0.3 0.06,-0.43 0.03,-0.12 0.07,-0.25 0.12,-0.37 0.08,-0.22 0.2,-0.44 0.32,-0.64 0.53,-0.81 1.28,-1.33 2.17,-1.67 0.25,-0.09 0.5,-0.17 0.76,-0.2 0.3,-0.04 0.6,-0.05 0.91,-0.05 1.48,0.04 3.06,0.62 4.29,1.43 0.28,0.18 0.54,0.37 0.79,0.57l-0.19 -0.28c-0.01,-0.01 -0.02,-0.02 -0.03,-0.04l-0.16 -0.22c-0.02,-0.02 -0.03,-0.04 -0.04,-0.06 -0.03,-0.02 -0.09,-0.11 -0.11,-0.14l-0.06 -0.13 0.14 0.04c0.18,0.05 0.35,0.1 0.53,0.15 0.18,0.05 0.36,0.09 0.55,0.13 0.39,0.08 0.8,0.13 1.2,0.14 0.79,0.02 1.48,-0.13 2.2,-0.46 1.14,-0.52 2.17,-1.43 3.02,-2.35 1.33,-1.46 2.35,-3.04 3.37,-4.72 0.33,-0.54 0.64,-1.1 0.99,-1.63 0.05,-0.08 0.2,-0.29 0.23,-0.31zm-0.59 1.32c-0.03,0.05 -0.06,0.1 -0.09,0.16 -0.34,0.57 -0.68,1.14 -1.03,1.69 -0.71,1.11 -1.44,2.16 -2.29,3.17 -0.55,0.65 -1.17,1.28 -1.83,1.81 -0.17,0.14 -0.34,0.27 -0.52,0.39 -0.18,0.13 -0.37,0.24 -0.55,0.36l-0.02 0.01 -0 -0c-0,0 -0.01,0 -0.01,0.01 -0,0 -0,0 -0,0 0,0 0,0 0,0l-0.01 0.01 -0.02 0.01 -0 -0c-0,0 -0.01,0 -0.01,0.01 -0,0 -0,0 -0,0 0,0 0,0 0,0l-0 0 -0.02 0.01 -0 -0c-0.01,0 -0.01,0.01 -0.02,0.01 -0,0 -0.01,0 -0.01,0.01l-0 0 -0.02 0.01 -0 -0c-0.01,0.01 -0.03,0.01 -0.04,0.02 -0,0 -0.01,0.01 -0.01,0.01 -0.01,0.01 -0.02,0.01 -0.03,0.01l-0.01 0.01 -0 0c-0.08,0.04 -0.16,0.08 -0.23,0.12 -0.08,0.04 -0.16,0.07 -0.25,0.11 -0.53,0.23 -1.15,0.38 -1.73,0.41 -0.12,0.01 -0.24,0 -0.36,-0 -0.32,-0 -0.65,-0.04 -0.97,-0.09 -0.33,-0.05 -0.65,-0.13 -0.97,-0.21l0 0c0.11,0.15 0.22,0.31 0.32,0.47 0.04,0.05 0.07,0.11 0.1,0.16 0.04,0.05 0.06,0.11 0.1,0.16 0.03,0.04 0.18,0.33 0.19,0.38l0.03 0.17 -0.13 -0.11c-0.12,-0.1 -0.24,-0.21 -0.36,-0.32 -0.12,-0.1 -0.25,-0.2 -0.37,-0.3 -0.25,-0.2 -0.52,-0.38 -0.79,-0.56 -0.56,-0.36 -1.17,-0.66 -1.8,-0.89 -0.73,-0.26 -1.46,-0.41 -2.23,-0.45 -0.39,-0.02 -0.84,0 -1.22,0.1 -0.33,0.08 -0.65,0.22 -0.96,0.37l-0.01 0.01 -0.01 0c-0.02,0.01 -0.06,0.03 -0.08,0.04l-0.02 0.01 -0 -0c-0.01,0 -0.01,0.01 -0.02,0.01 -0,0 -0.01,0 -0.01,0.01 -0.01,0 -0.01,0.01 -0.02,0.01l-0.02 0.01 -0.01 0c-0.01,0 -0.01,0.01 -0.02,0.01 -0.01,0.01 -0.02,0.01 -0.03,0.02l-0 0 -0.02 0.01 -0.01 0c-0.04,0.02 -0.1,0.06 -0.14,0.08 -0.14,0.1 -0.27,0.18 -0.4,0.3 -0.02,0.02 -0.05,0.04 -0.07,0.06 -0.02,0.02 -0.04,0.04 -0.06,0.05 -0.04,0.03 -0.08,0.08 -0.11,0.11 -0.22,0.22 -0.45,0.51 -0.6,0.79 -0.03,0.06 -0.07,0.14 -0.11,0.22 0.1,-0.12 0.2,-0.24 0.33,-0.35 0.24,-0.22 0.51,-0.4 0.81,-0.52 0.71,-0.29 1.55,-0.29 2.3,-0.11 0.34,0.08 0.67,0.2 0.99,0.32 1.58,0.61 3.14,1.39 4.83,1.68 0.79,0.14 1.6,0.15 2.39,0.04 1.17,-0.16 2.26,-0.63 3.24,-1.29 0.06,-0.04 0.16,-0.11 0.24,-0.17l-0.16 0c-0.02,0 -0.03,-0 -0.05,-0.01 -0.04,-0 -0.1,0.01 -0.14,-0 -0.01,-0 -0.02,-0 -0.02,-0.01 -0.04,-0 -0.08,0.01 -0.12,-0.01 -0.01,-0 -0.04,0 -0.05,0 -0.02,0 -0.03,-0 -0.05,-0.01 -0.01,-0 -0.02,-0 -0.02,-0 -0.02,0 -0.04,0 -0.06,-0.01 -0,-0 -0,-0 -0,-0 -0.02,0 -0.05,0 -0.07,-0.01 -0.03,-0 -0.05,0 -0.08,-0.01 -0.03,-0 -0.04,0.01 -0.07,-0.01 -0.02,-0.01 -0.04,0.01 -0.08,-0.01l-0.03 -0.02 0 -0.09 0.05 -0.01c0.13,-0.03 0.27,-0.05 0.4,-0.07 0.36,-0.05 0.69,-0.19 1.01,-0.36 0.37,-0.2 0.76,-0.5 1.09,-0.76 1.18,-0.96 2.51,-4.77 3.01,-6.27 0.08,-0.23 0.15,-0.47 0.23,-0.7 0.03,-0.08 0.05,-0.17 0.08,-0.25z"/>
 </g>
</svg>
