<svg version="1.0" xmlns="http://www.w3.org/2000/svg" width="180" height="180" viewBox="0 0 135 135"><path d="M61 1.9c-2.5 1-15.7 6.2-29.5 11.6C17.8 18.9 5.9 23.7 5.2 24.3c-1.8 1.4-1.5 5.1.6 7 .9.8 6 3.2 11.2 5.3 5.2 2 9.7 3.8 9.9 4 .2.2-.6 1.5-1.7 3.1-6.4 9.1-9.7 19.6-10.1 31.8-.5 17.5 4.4 31.7 14.9 42.8 10.7 11.5 23.2 16.6 39 16.1 28.8-.8 50.6-23.8 51.5-54.2.4-14.2-2.2-24.1-8.9-34.7l-3.3-5.1 10.8-4.3c11-4.3 12.8-5.8 11.4-10-.6-2.1-2.2-2.8-35.8-16C82.2 5.2 70.5.9 68.7.6 66.9.4 63.6.9 61 1.9zm31.8 16.4c12.8 5 22.9 9.4 22.4 9.9-.4.4-3.6 1.9-7.1 3.2l-6.3 2.5-5.6-3.9c-17.1-11.6-42.4-10.9-59 1.8L34 34.3l-7.5-2.9c-4.1-1.6-7.5-3.1-7.5-3.5 0-.3 10.2-4.5 22.8-9.4 12.5-4.9 23.1-9.2 23.6-9.6 1.1-.9-.4-1.4 27.4 9.4zM81.5 32.2c2.8 1.4 5.8 3.5 6.8 4.5 1.7 1.9 1.5 2.1-9.2 6.3-11.4 4.4-12.8 4.5-19.6 1.5-1.6-.8-5.6-2.4-8.7-3.7l-5.7-2.4 3.5-2.7c6.3-5.1 11.1-6.6 19.9-6.4 6.3.2 9.1.8 13 2.9zm-27.2 19L65 55.4v8.5c0 4.8-.4 9.3-.9 10-1.3 2 .5 5.1 2.8 5.1 2.9 0 4.7-2.8 3.3-5.1-.7-1-1.2-5.5-1.2-10.3v-8.4l3.2-.7c1.8-.4 3.9-1.1 4.8-1.6C78.6 52 93.8 46 94.5 46c.8 0 4.4 11 5.2 15.7.4 2.6.8 11.3.8 19.3 0 12.5-.4 15.5-2.4 21.9-5.1 15.6-16.2 24.4-30.6 24.3-7.9 0-12.9-1.8-18.2-6.6-9.8-8.8-14.4-22.3-14.5-42.1 0-13.5.3-16.1 3.4-25.8 1.6-5.4 2.4-6.7 3.7-6.2.9.3 6.4 2.5 12.4 4.7z"/><path d="M67.7 81.4c-.4.9-1.4 1.2-2.5.9-1.6-.4-2 .1-2.4 2.6-.2 1.6.1 4.3.8 5.8 1 2.4 1.3 2.5 1.9 1.1.8-1.9 2.9-1.3 2.2.6-.3.6.6 3.2 1.9 5.6 2 4 2.3 4.2 2.5 2 .4-4.8-.2-9.6-1.7-14.8-1.6-5.6-1.9-6-2.7-3.8z"/></svg>