<?xml version="1.0" standalone="no"?>
<!DOCTYPE svg PUBLIC "-//W3C//DTD SVG 20010904//EN"
 "http://www.w3.org/TR/2001/REC-SVG-20010904/DTD/svg10.dtd">
<svg version="1.0" xmlns="http://www.w3.org/2000/svg"
 width="135.000000pt" height="135.000000pt" viewBox="0 0 135.000000 135.000000"
 preserveAspectRatio="xMidYMid meet">
<metadata>
Created by potrace 1.14, written by Peter Selinger 2001-2017
</metadata>
<g transform="translate(0.000000,135.000000) scale(0.100000,-0.100000)"
fill="#000000" stroke="none">
<path d="M610 1331 c-25 -10 -157 -62 -295 -116 -137 -54 -256 -102 -263 -108
-18 -14 -15 -51 6 -70 9 -8 60 -32 112 -53 52 -20 97 -38 99 -40 2 -2 -6 -15
-17 -31 -64 -91 -97 -196 -101 -318 -5 -175 44 -317 149 -428 107 -115 232
-166 390 -161 288 8 506 238 515 542 4 142 -22 241 -89 347 l-33 51 108 43
c110 43 128 58 114 100 -6 21 -22 28 -358 160 -125 49 -242 92 -260 95 -18 2
-51 -3 -77 -13z m318 -164 c128 -50 229 -94 224 -99 -4 -4 -36 -19 -71 -32
l-63 -25 -56 39 c-171 116 -424 109 -590 -18 l-32 -25 -75 29 c-41 16 -75 31
-75 35 0 3 102 45 228 94 125 49 231 92 236 96 11 9 -4 14 274 -94z m-113
-139 c28 -14 58 -35 68 -45 17 -19 15 -21 -92 -63 -114 -44 -128 -45 -196 -15
-16 8 -56 24 -87 37 l-57 24 35 27 c63 51 111 66 199 64 63 -2 91 -8 130 -29z
m-272 -190 l107 -42 0 -85 c0 -48 -4 -93 -9 -100 -13 -20 5 -51 28 -51 29 0
47 28 33 51 -7 10 -12 55 -12 103 l0 84 32 7 c18 4 39 11 48 16 16 9 168 69
175 69 8 0 44 -110 52 -157 4 -26 8 -113 8 -193 0 -125 -4 -155 -24 -219 -51
-156 -162 -244 -306 -243 -79 0 -129 18 -182 66 -98 88 -144 223 -145 421 0
135 3 161 34 258 16 54 24 67 37 62 9 -3 64 -25 124 -47z"/>
<path d="M677 536 c-4 -9 -14 -12 -25 -9 -16 4 -20 -1 -24 -26 -2 -16 1 -43 8
-58 10 -24 13 -25 19 -11 8 19 29 13 22 -6 -3 -6 6 -32 19 -56 20 -40 23 -42
25 -20 4 48 -2 96 -17 148 -16 56 -19 60 -27 38z"/>
</g>
</svg>
